<?xml version="1.0" encoding="UTF-8"?>
<svg width="18px" height="18px" viewBox="0 0 18 18" version="1.1" xmlns="http://www.w3.org/2000/svg" xmlns:xlink="http://www.w3.org/1999/xlink">
    <!-- Generator: Sketch 42 (36781) - http://www.bohemiancoding.com/sketch -->
    <title>icon-alert-yellow</title>
    <desc>Created with Sketch.</desc>
    <defs>
        <path d="M17.2892115,15.956186 C17.5035049,16.3774466 17.4938084,16.8967499 17.2698184,17.3190878 C17.0458285,17.7403484 16.6366347,18 16.199321,18 L1.24532571,18 C0.807042354,18 0.397848603,17.7403484 0.173858659,17.3190878 C-0.0501312857,16.8967499 -0.0588581666,16.3774466 0.15446559,15.956186 L7.63146326,0.725085294 C7.84575667,0.281199497 8.26464695,-3.63797881e-12 8.72232337,-3.63797881e-12 C9.1799998,-3.63797881e-12 9.59889008,0.281199497 9.81221384,0.725085294 L17.2892115,15.956186 Z" id="path-1"></path>
        <mask id="mask-2" maskContentUnits="userSpaceOnUse" maskUnits="objectBoundingBox" x="0" y="0" width="17.4440522" height="18" fill="white">
            <use xlink:href="#path-1"></use>
        </mask>
    </defs>
    <g id="UI-KIT" stroke="none" stroke-width="1" fill="none" fill-rule="evenodd">
        <g id="QuickSummary-NG" transform="translate(-180.000000, -4048.000000)">
            <g id="Icons" transform="translate(150.000000, 3950.000000)">
                <g id="Status-Icons" transform="translate(30.000000, 51.000000)">
                    <g id="icon-alert-yellow" transform="translate(0.000000, 47.000000)">
                        <use id="Path" stroke="#E29F37" mask="url(#mask-2)" stroke-width="2" fill="#FFC04A" xlink:href="#path-1"></use>
                        <path d="M10.1746369,13.1355602 C10.1746369,12.9444197 10.0210581,12.78496 9.825,12.78496 L7.725,12.78496 C7.5278527,12.78496 7.37536307,12.9444197 7.37536307,13.1355602 L7.37536307,15.1493997 C7.37536307,15.3405402 7.5278527,15.5 7.725,15.5 L9.825,15.5 C10.0210581,15.5 10.1746369,15.3405402 10.1746369,15.1493997 L10.1746369,13.1355602 Z M10.35,6.31786349 C10.35,6.254502 10.3162344,6.16896398 10.2399896,6.11616274 C10.1746369,6.06336149 10.0766079,6 9.97748963,6 L7.57142116,6 C7.47339212,6 7.37536307,6.06336149 7.31001037,6.11616274 C7.23267635,6.16896398 7.2,6.2756225 7.2,6.33898399 L7.38625519,11.1840262 C7.38625519,11.3223655 7.54963693,11.427968 7.75767635,11.427968 L9.78143154,11.427968 C9.97748963,11.427968 10.1419606,11.3223655 10.1528527,11.1840262 L10.35,6.31786349 Z" id="Fill-1" fill="#FAFAFA"></path>
                    </g>
                </g>
            </g>
        </g>
    </g>
</svg>