<?xml version="1.0" encoding="UTF-8"?>
<svg width="18px" height="18px" viewBox="0 0 18 18" version="1.1" xmlns="http://www.w3.org/2000/svg" xmlns:xlink="http://www.w3.org/1999/xlink">
    <!-- Generator: Sketch 42 (36781) - http://www.bohemiancoding.com/sketch -->
    <title>icon-alert-red</title>
    <desc>Created with Sketch.</desc>
    <defs>
        <rect id="path-1" x="0" y="0" width="18" height="18" rx="4"></rect>
        <mask id="mask-2" maskContentUnits="userSpaceOnUse" maskUnits="objectBoundingBox" x="0" y="0" width="18" height="18" fill="white">
            <use xlink:href="#path-1"></use>
        </mask>
    </defs>
    <g id="UI-KIT" stroke="none" stroke-width="1" fill="none" fill-rule="evenodd">
        <g id="QuickSummary-NG" transform="translate(-180.000000, -4011.000000)">
            <g id="Icons" transform="translate(150.000000, 3950.000000)">
                <g id="Status-Icons" transform="translate(30.000000, 51.000000)">
                    <g id="icon-alert-red" transform="translate(0.000000, 10.000000)">
                        <use id="Box" stroke="#E14B48" mask="url(#mask-2)" stroke-width="2" fill="#FF645C" xlink:href="#path-1"></use>
                        <path d="M12.6014355,9.52018108 C11.3660455,6.84379449 12.1632085,5.98509962 12.1713377,5.97672027 C12.1850948,5.96233782 12.1869708,5.94032642 12.1763403,5.92319254 C12.1650844,5.90680905 12.1438234,5.90030568 12.1251888,5.90768451 C12.1069293,5.9148132 10.3875385,6.63205979 10.6037755,8.21988242 C10.1320311,7.7961629 7.92888973,5.62053574 9.27646289,3.06196018 C9.28496729,3.04645215 9.28234093,3.02669191 9.27020965,3.0139353 C9.25807836,3.00042831 9.23881838,2.99642623 9.22255996,3.00342986 C9.19341986,3.01556115 8.50631388,3.30883809 7.95853009,4.05147283 C7.45289312,4.73545219 6.98314976,5.94482875 7.61635281,7.81629833 C7.8462219,8.69662941 7.41187187,9.41074939 7.17937642,9.71403151 C7.23615584,9.50479811 7.30869342,9.15136501 7.29643707,8.74477936 C7.27805254,8.14959601 7.06356642,7.32842057 6.1474668,6.79789571 C6.13308435,6.7897665 6.11469983,6.79026676 6.10119283,6.80039701 C6.08731064,6.81052726 6.08093233,6.82753607 6.08505947,6.84441982 C6.08843622,6.85992785 6.43136389,8.42398816 5.82992729,9.14773813 C5.3109084,9.77168638 4.80201975,10.8579992 5.07728736,11.8647708 C5.30803191,12.7060816 6.02878031,13.3485395 7.21977235,13.7735097 C7.52505551,13.8673083 7.81670661,13.9388453 8.13987404,13.9992516 C8.16100999,14.0033788 8.18164568,13.9908723 8.18789892,13.9704867 C8.19465242,13.9496009 8.18427204,13.9273394 8.16476193,13.9183347 C7.55307002,13.6531973 6.92236827,13.1010363 7.39123618,11.97908 C7.83759243,11.012079 7.7574259,10.5131955 7.6682547,10.2999601 C7.89912431,10.4300275 8.35686146,10.7670771 8.24305249,11.3601343 C8.23967574,11.3773933 8.24755483,11.3954026 8.26331299,11.4044073 C8.27857089,11.413537 8.29745568,11.4124114 8.31133787,11.4009055 C8.32572032,11.3898998 9.70355916,10.2560623 9.07735973,8.86734286 C9.38626978,9.045185 10.2044437,9.66775754 9.72169355,11.0964977 C9.56098529,11.710816 9.99858701,12.1524198 10.0169715,12.1709294 C10.031354,12.1854369 10.0533654,12.1874379 10.069999,12.1764322 C10.0870078,12.1659268 10.0935112,12.1441655 10.0865076,12.1255309 C10.0717499,12.0873861 9.74558093,11.2080555 10.4538229,10.7226791 C10.4165535,10.9480458 10.3573979,11.5067103 10.6102789,11.811118 C10.838147,12.0851349 11.0580109,12.5344927 10.9911012,12.9735952 C10.9442019,13.2822552 10.7612321,13.5427651 10.4465691,13.7466207 C10.4286848,13.758752 10.4221815,13.7808885 10.4314363,13.8005237 C10.440566,13.8200338 10.4624523,13.8290384 10.4832131,13.82241 C11.2601156,13.5651517 12.2803942,13.0546372 12.7247494,12.0798822 C13.0526693,11.36151 13.0111478,10.5006891 12.6014355,9.52018108" id="Fire" fill="#FFFFFF"></path>
                    </g>
                </g>
            </g>
        </g>
    </g>
</svg>